<?xml version="1.0" encoding="UTF-8"?>
<svg id="katman_2" data-name="katman 2" xmlns="http://www.w3.org/2000/svg" viewBox="0 0 1885.72 1885.34">
  <defs>
    <style>
      .cls-1 {
        fill: #fff;
        stroke-width: 0px;
      }
    </style>
  </defs>
  <path class="cls-1" d="M943.08,642.54c-165.69,0-300,134.31-300,300s134.31,300,300,300,300-134.31,300-300-134.31-300-300-300ZM1168.08,942.54c0,124.26-100.74,225-225,225s-225-100.74-225-225,100.74-225,225-225,225,100.74,225,225Z"/>
  <path class="cls-1" d="M943.08,1267.54c-50.64,0-98.56-11.6-141.28-32.26-5.86-2.84-12.92-.66-16.18,4.98l-162.82,282.01c-3.52,6.09-1.31,13.91,4.91,17.21,94.12,49.83,201.44,78.06,315.36,78.06s221.24-28.23,315.36-78.06c6.22-3.29,8.43-11.11,4.91-17.21l-162.82-282.01c-3.26-5.64-10.31-7.82-16.18-4.98-42.72,20.66-90.64,32.26-141.28,32.26Z"/>
  <path class="cls-1" d="M917.72,268.02c-352.62,13.03-636.13,296.54-649.16,649.16-.26,7.03,5.41,12.86,12.44,12.86h325.57c6.53,0,11.93-5.04,12.41-11.55,11.73-160.31,139.73-288.32,300.05-300.05,6.51-.48,11.55-5.88,11.55-12.41v-325.57c0-7.04-5.83-12.7-12.86-12.44Z"/>
  <path class="cls-1" d="M1579.04,270.86C1418.95,119.24,1204.71,24.23,968.34,17.89c-7-.19-12.77,5.45-12.77,12.45v264.48h0v311.22c0,6.51,5.01,11.93,11.51,12.4,71.68,5.24,136.91,33.72,188.17,77.95,4.93,4.26,12.31,3.99,16.92-.62l227.57-227.57h0l179.51-179.51c4.95-4.95,4.86-13.01-.22-17.82Z"/>
  <path class="cls-1" d="M696.93,1154.71c-44.22-51.27-72.72-116.48-77.95-188.17-.47-6.49-5.9-11.51-12.4-11.51h-338.37s-237.33,0-237.33,0c-7,0-12.64,5.77-12.45,12.77,6.34,236.37,101.36,450.61,252.98,610.69,4.81,5.08,12.88,5.17,17.82.22l167.81-167.81h0l239.27-239.27c4.61-4.61,4.88-11.99.62-16.92Z"/>
  <path class="cls-1" d="M1617.95,955.04h0s-87.97,0-87.97,0c-6.69,0-12.15,5.29-12.43,11.97-4,95.57-31.33,185.1-76.44,263.07-3.45,5.97-11.06,8.05-17.03,4.6l-195.81-113.05c-5.64-3.26-12.83-1.61-16.5,3.78-22.98,33.69-52.13,62.84-85.82,85.82-5.38,3.67-7.04,10.86-3.78,16.51l169.22,293.1,118.67,205.55c3.51,6.07,11.34,8.06,17.31,4.39,257.71-158.68,431.71-440.2,440.37-762.96.19-7-5.45-12.77-12.45-12.77h-237.33Z"/>
  <path class="cls-1" d="M1414.44,1200.25c6.15,3.55,14.02,1.24,17.29-5.07,39.19-75.65,61.35-161.55,61.35-252.64,0-.04,0-.08,0-.13,0-6.83,5.5-12.37,12.32-12.37h37.54s62.22,0,62.22,0c7.03,0,12.7-5.83,12.44-12.85-6.18-167.27-73.22-318.99-179.63-433.66-4.79-5.16-12.92-5.27-17.9-.3l-230.21,230.21c-4.6,4.6-4.89,11.98-.64,16.9,49.13,56.94,78.86,131.09,78.86,212.2,0,50.64-11.59,98.56-32.25,141.28-2.84,5.86-.66,12.92,4.98,16.18l173.62,100.24Z"/>
  <path class="cls-1" d="M191.84,1711.46c61.02,59.62,129.1,112.04,202.88,155.88l375.15-649.78c-16.98-10.72-32.9-22.97-47.57-36.55L191.84,1711.46Z"/>
</svg>